Coordinates
version=1
nRows=30
nColumns=23
inDegrees=yes

Units are S.I. units (second, meters, Newtons, ...)
If the header above contains a line with 'inDegrees', this indicates whether rotational values are in degrees (yes) or radians (no).

endheader
time	pelvis_tilt	pelvis_list	pelvis_rotation	pelvis_tx	pelvis_ty	pelvis_tz	hip_flexion_r	hip_adduction_r	hip_rotation_r	knee_angle_r	knee_angle_r_beta	ankle_angle_r	subtalar_angle_r	mtp_angle_r	hip_flexion_l	hip_adduction_l	hip_rotation_l	knee_angle_l	knee_angle_l_beta	ankle_angle_l	subtalar_angle_l	mtp_angle_l
     15.00000000	    -12.08504719	     -6.47098663	     -1.41444872	      2.27842261	      0.94544652	      1.04902060	     33.25627591	      9.27403554	     -4.34297081	      1.21197145	      0.02115289	      7.02333518	      4.80846110	      0.00000000	    -14.69172135	    -11.49606206	    -20.63895892	     61.55429088	      1.07432504	    -15.93366563	     -5.14281269	      0.00000000
     15.00666667	    -11.23455625	     -7.23973838	     -1.99632291	      2.27877676	      0.94303686	      1.04961831	     31.82802550	     10.38165129	     -3.99094045	      2.11424383	      0.03690052	      4.00912724	      1.73135539	      0.00000000	    -14.66636868	    -12.61245464	    -21.26105137	     65.47925229	      1.14282854	    -15.77832507	     -6.28501726	      0.00000000
     15.01333333	    -10.49613912	     -8.04746294	     -2.70801075	      2.27862421	      0.94020984	      1.05047188	     31.13354461	     11.44723525	     -4.84377737	      4.62205035	      0.08067000	      1.50822530	     -0.30459750	      0.00000000	    -14.42804308	    -13.78334692	    -21.91287808	     69.44414470	      1.21202897	    -15.60399230	     -7.36560311	      0.00000000
     15.02000000	    -10.87469406	     -8.04683723	     -3.91658627	      2.27717579	      0.93551140	      1.05192332	     32.18535476	     11.90671013	     -4.72218667	      8.51276485	      0.14857578	     -1.34403158	     -3.76895510	      0.00000000	    -12.69794459	    -14.00571662	    -22.36682232	     73.62354356	      1.28497324	    -15.13796090	     -8.52934312	      0.00000000
     15.02666667	    -11.25561410	     -7.85000348	     -5.23790387	      2.27533167	      0.93039756	      1.05343107	     33.60189015	     12.13300585	     -4.85475899	     13.42112627	      0.23424284	     -3.16540693	     -6.33288220	      0.00000000	    -10.84626526	    -14.02740615	    -22.81270964	     77.71744220	      1.35642525	    -14.62655347	     -9.44814140	      0.00000000
     15.03333333	    -11.87392144	     -7.32963179	     -6.56421759	      2.27301075	      0.92465294	      1.05482022	     35.43717327	     12.04634537	     -4.68287035	     18.82601425	      0.32857593	     -3.90262134	     -8.28447990	      0.00000000	     -8.49367959	    -13.71769312	    -23.03592756	     81.75939777	      1.42697069	    -14.08058260	    -10.39761557	      0.00000000
     15.04000000	    -12.50476004	     -6.70229659	     -7.78042185	      2.27050129	      0.91874050	      1.05599459	     37.21519127	     11.87128991	     -4.16917174	     24.20875826	      0.42252254	     -3.59150135	     -9.74269475	      0.00000000	     -5.90969753	    -13.34223322	    -23.07546435	     85.69586065	      1.49567492	    -13.34199861	    -10.96821120	      0.00000000
     15.04666667	    -12.91754698	     -6.26634677	     -8.80002455	      2.26801150	      0.91327457	      1.05688045	     38.48499412	     11.84414286	     -3.49562452	     29.17739877	      0.50924168	     -2.22550185	    -10.58001298	      0.00000000	     -3.40056931	    -13.21002718	    -22.92246087	     89.46854276	      1.56152065	    -12.49218542	    -11.13043267	      0.00000000
     15.05333333	    -13.05263989	     -6.05123645	     -9.60457500	      2.26563522	      0.90857533	      1.05745432	     39.10824626	     11.91600720	     -2.87035418	     33.61642968	      0.58671738	      0.18146243	    -10.68382671	      0.00000000	     -1.03538688	    -13.30450021	    -22.51688009	     93.01994628	      1.62350433	    -11.62007301	    -11.02634261	      0.00000000
     15.06000000	    -13.03507684	     -6.01267442	    -10.24071839	      2.26335086	      0.90471846	      1.05765605	     39.16575736	     12.00028842	     -2.43076118	     37.43027755	      0.65328158	      3.46256351	     -9.85346743	      0.00000000	      1.33593586	    -13.52465638	    -21.84257304	     96.31075966	      1.68093986	    -10.69809721	    -10.76461160	      0.00000000
     15.06666667	    -12.57155073	     -6.61812841	    -10.65393862	      2.26150585	      0.90234551	      1.05768234	     38.00932656	     12.58672860	     -1.99738336	     40.05868582	      0.69915596	      6.31135990	     -9.53881100	      0.00000000	      3.24161078	    -14.44081706	    -20.92443368	     99.32619669	      1.73356917	     -9.55097248	     -9.75217008	      0.00000000
     15.07333333	    -12.22836413	     -6.99990361	    -10.81979342	      2.25971037	      0.90051870	      1.05710132	     36.73575813	     12.64879231	     -2.00289554	     42.31534596	      0.73854211	     10.20332325	     -7.74395229	      0.00000000	      5.59952444	    -14.93457660	    -19.54125201	    102.00511750	      1.78032515	     -8.61892476	     -9.11742044	      0.00000000
     15.08000000	    -11.74458463	     -7.69494128	    -10.81354479	      2.25819936	      0.89986792	      1.05652462	     34.62490526	     13.10013056	     -1.59208261	     43.34894661	      0.75658185	     12.77508580	     -7.89754507	      0.00000000	      7.89841502	    -15.70938570	    -17.86574017	    104.33453700	      1.82098119	     -7.60022939	     -8.28767024	      0.00000000
     15.08666667	    -11.34932065	     -8.29419618	    -10.61276770	      2.25695263	      0.89983340	      1.05583881	     32.26331568	     13.34171206	     -1.34720995	     43.77885095	      0.76408509	     15.37369977	     -7.52876924	      0.00000000	     10.48569193	    -16.27066837	    -15.89133950	    106.29333556	      1.85516868	     -6.47887981	     -7.47987648	      0.00000000
     15.09333333	    -10.70281055	     -8.90172275	     -9.99923154	      2.25641250	      0.90085614	      1.05440415	     29.34512984	     13.03324456	     -2.18994606	     43.78193083	      0.76413885	     19.09936149	     -3.88764680	      0.00000000	     12.95401685	    -16.55291269	    -13.53491622	    107.77837166	      1.88108745	     -5.30699199	     -6.55906855	      0.00000000
     15.10000000	    -10.57434315	     -9.18603723	     -9.43380044	      2.25576970	      0.90190774	      1.05355207	     26.64729812	     12.87928815	     -2.07589922	     42.96325701	      0.74985029	     21.05169892	     -3.49606254	      0.00000000	     16.09024588	    -16.46993828	    -11.15932098	    108.90342237	      1.90072329	     -4.22340162	     -6.21831330	      0.00000000
     15.10666667	    -10.44477787	     -9.36583528	     -8.65973326	      2.25558972	      0.90354248	      1.05259564	     23.70042474	     12.54169886	     -2.20600770	     41.62950345	      0.72657190	     22.75297719	     -2.64082765	      0.00000000	     19.23833400	    -16.07229511	     -8.68728019	    109.58415987	      1.91260440	     -3.11595278	     -6.19956308	      0.00000000
     15.11333333	     -9.84546364	     -9.48579134	     -7.61355832	      2.25624141	      0.90634351	      1.05139560	     19.96237850	     11.95853378	     -2.79839373	     39.73177686	      0.69345032	     24.27217305	     -0.49220975	      0.00000000	     21.73778340	    -15.35490395	     -6.26117939	    109.69766667	      1.91458547	     -2.08670577	     -6.53941193	      0.00000000
     15.12000000	    -10.12418920	     -9.10072970	     -6.82582461	      2.25653501	      0.90843991	      1.05079605	     17.16799238	     11.27153863	     -2.75299619	     37.62986801	      0.65676509	     24.95368214	      0.12161874	      0.00000000	     25.12706775	    -14.16781883	     -4.21749539	    109.50240394	      1.91117749	     -1.20437422	     -7.41777509	      0.00000000
     15.12666667	    -10.06042145	     -8.53441712	     -5.89403662	      2.25742710	      0.91139297	      1.05001467	     13.84053516	     10.31606472	     -2.98285548	     35.11565359	      0.61288377	     25.08361433	      1.20604647	      0.00000000	     27.90891557	    -12.60868003	     -2.43479823	    108.77366543	      1.89845860	     -0.42970652	     -8.71261879	      0.00000000
     15.13333333	    -10.61314013	     -7.69504560	     -5.17240966	      2.25812777	      0.91382824	      1.04959145	     11.23770641	      9.29635832	     -2.94191829	     32.58411283	      0.56870005	     24.74617691	      1.86216440	      0.00000000	     31.18158622	    -10.84682416	     -1.05484691	    107.73567649	      1.88034228	      0.22698388	    -10.22189574	      0.00000000
     15.14000000	    -11.16386406	     -6.62178834	     -4.46567036	      2.25901824	      0.91656531	      1.04909519	      8.64043276	      8.03142821	     -3.03234511	     29.92987632	      0.52237489	     23.74339345	      2.51312306	      0.00000000	     34.21130786	     -8.80845973	     -0.03983561	    106.25306202	      1.85446577	      0.77701534	    -11.95799860	      0.00000000
     15.14666667	    -11.73073716	     -5.38559308	     -3.81948306	      2.26004147	      0.91948903	      1.04864911	      6.11959205	      6.63890832	     -3.15255973	     27.26086754	      0.47579190	     22.17962189	      2.97349449	      0.00000000	     37.01559594	     -6.65593502	      0.62842989	    104.37309753	      1.82165420	      1.19261156	    -13.63178758	      0.00000000
     15.15333333	    -12.38026319	     -4.07045156	     -3.25273178	      2.26108309	      0.92246672	      1.04821783	      3.77276339	      5.21655922	     -3.25948159	     24.62191037	      0.42973340	     19.91474897	      3.19830681	      0.00000000	     39.70105375	     -4.49834558	      1.03346660	    102.15219916	      1.78289221	      1.70062477	    -15.17771623	      0.00000000
     15.16000000	    -12.91557988	     -2.76285215	     -2.80408822	      2.26224488	      0.92579886	      1.04800629	      1.32146691	      3.92070859	     -2.99609936	     21.85402861	      0.38142475	     16.68427241	      2.63669749	      0.00000000	     42.02284356	     -2.57755198	      1.13658109	     99.56528920	      1.73774212	      2.27053219	    -16.39700512	      0.00000000
     15.16666667	    -13.60891886	     -1.44366783	     -2.37830636	      2.26331329	      0.92897277	      1.04765647	     -0.77201019	      2.59331517	     -2.94074421	     19.30382029	      0.33691522	     12.78471409	      1.76712963	      0.00000000	     44.35366900	     -0.67994249	      1.15013593	     96.68651103	      1.68749796	      2.84501738	    -17.13950677	      0.00000000
     15.17333333	    -14.25334878	     -0.10754164	     -2.01575923	      2.26437944	      0.93218776	      1.04727274	     -2.62609554	      1.16223311	     -3.38112170	     17.24129118	      0.30091730	      8.83701629	      1.57935816	      0.00000000	     46.43598779	      1.10650686	      1.00469939	     93.50127756	      1.63190515	      3.47965363	    -17.63979884	      0.00000000
     15.18000000	    -14.96944312	      1.16876226	     -1.69498050	      2.26537530	      0.93528656	      1.04689237	     -4.05241579	     -0.29797509	     -4.48442915	     15.78677706	      0.27553124	      4.84491818	      2.04036194	      0.00000000	     48.41946861	      2.70015039	      0.77157403	     90.03166272	      1.57134895	      4.12474605	    -17.73142073	      0.00000000
     15.18666667	    -15.61894969	      2.27868352	     -1.59294164	      2.26620935	      0.93845400	      1.04688205	     -5.23046431	     -1.58337456	     -5.54143998	     14.82978210	      0.25882852	      0.65746777	      2.50969680	      0.00000000	     50.14416374	      3.80151160	      0.35370980	     86.32018523	      1.50657144	      4.81005764	    -17.34335891	      0.00000000
     15.19333333	    -15.78504012	      3.18698586	     -1.24288672	      2.26741345	      0.94211185	      1.04647225	     -7.12810676	     -2.45843162	     -5.95240758	     13.42139915	      0.23424761	     -4.29224759	      0.71096309	      0.00000000	     51.10955792	      4.93628987	      0.23346010	     82.30380874	      1.43647245	      5.38613563	    -16.99253306	      0.00000000
